<svg xmlns="http://www.w3.org/2000/svg" viewBox="0 0 88.65 102.36"><defs><style>.cls-1{fill:#b7cd36;}.cls-2{fill:#fff;}.cls-3,.cls-4{fill:none;stroke-miterlimit:10;}.cls-3{stroke:#b7cd36;stroke-width:1.44px;}.cls-4{stroke:#fff;stroke-width:2.88px;}</style></defs><g id="Layer_2" data-name="Layer 2"><g id="read_more_close" data-name="read more close"><polygon class="cls-1" points="0 25.59 0 76.77 44.32 102.36 88.65 76.77 88.65 25.59 44.32 0 0 25.59"/><polygon class="cls-2" points="43 74.96 15.44 70.64 15.44 27.41 43 31.72 43 74.96"/><polygon class="cls-2" points="45.65 74.96 73.21 70.64 73.21 27.41 45.65 31.72 45.65 74.96"/><line class="cls-3" x1="49.39" y1="39.17" x2="69.47" y2="36.03"/><line class="cls-3" x1="49.39" y1="48.83" x2="69.47" y2="45.68"/><line class="cls-3" x1="49.39" y1="58.48" x2="69.47" y2="55.34"/><line class="cls-3" x1="49.39" y1="68.14" x2="69.47" y2="64.99"/><line class="cls-3" x1="39.26" y1="39.17" x2="19.18" y2="36.03"/><line class="cls-3" x1="39.26" y1="48.83" x2="19.18" y2="45.68"/><line class="cls-3" x1="39.26" y1="58.48" x2="19.18" y2="55.34"/><line class="cls-3" x1="39.26" y1="68.14" x2="19.18" y2="64.99"/><circle class="cls-1" cx="44.32" cy="51.18" r="10.75"/><line class="cls-4" x1="47.99" y1="47.52" x2="40.66" y2="54.85"/><line class="cls-4" x1="47.99" y1="54.85" x2="40.66" y2="47.52"/></g></g></svg>